<svg width="16" height="16" viewBox="0 0 16 16" fill="none" xmlns="http://www.w3.org/2000/svg">
<path d="M4.16673 7.5L11.6667 7.5L11.6667 8.33333L4.16673 8.33333L4.16673 7.5ZM7.91673 -5.81602e-08C10.0164 -7.35852e-08 12.03 0.834075 13.5147 2.31874C14.9993 3.8034 15.8334 5.81704 15.8334 7.91667C15.8334 10.0163 14.9993 12.0299 13.5147 13.5146C12.03 14.9993 10.0164 15.8333 7.91673 15.8333C5.8171 15.8333 3.80346 14.9993 2.3188 13.5146C0.834136 12.0299 6.11087e-05 10.0163 6.10933e-05 7.91667C6.10779e-05 5.81704 0.834136 3.8034 2.3188 2.31874C3.80346 0.834075 5.8171 -4.27351e-08 7.91673 -5.81602e-08ZM7.91673 0.833333C6.03811 0.833333 4.23644 1.57961 2.90806 2.90799C1.57967 4.23638 0.833395 6.03805 0.833395 7.91667C0.833395 9.79528 1.57967 11.597 2.90806 12.9253C4.23644 14.2537 6.03811 15 7.91673 15C9.79535 15 11.597 14.2537 12.9254 12.9253C14.2538 11.597 15.0001 9.79528 15.0001 7.91667C15.0001 6.03805 14.2538 4.23638 12.9254 2.90799C11.597 1.57961 9.79535 0.833333 7.91673 0.833333Z" fill="#FF1A00"/>
</svg>
