<svg width="16" height="16" viewBox="0 0 16 16" fill="none" xmlns="http://www.w3.org/2000/svg">
<path d="M4.21059 7.57895L7.57901 7.57895L7.57901 4.21053L8.42111 4.21053L8.42111 7.57895L11.7895 7.57895L11.7895 8.42105L8.42111 8.42105L8.42111 11.7895L7.57901 11.7895L7.57901 8.42105L4.21059 8.42105L4.21059 7.57895ZM8.00006 -5.87724e-08C10.1218 -7.43598e-08 12.1566 0.842855 13.6569 2.34315C15.1572 3.84344 16.0001 5.87827 16.0001 8C16.0001 10.1217 15.1572 12.1566 13.6569 13.6569C12.1566 15.1571 10.1218 16 8.00006 16C5.87833 16 3.8435 15.1571 2.34321 13.6569C0.842916 12.1566 6.11095e-05 10.1217 6.10939e-05 8C6.10783e-05 5.87827 0.842916 3.84344 2.34321 2.34315C3.8435 0.842855 5.87833 -4.3185e-08 8.00006 -5.87724e-08ZM8.00006 0.842105C6.10167 0.842105 4.28103 1.59624 2.93867 2.9386C1.5963 4.28097 0.842166 6.10161 0.842166 8C0.842166 9.89839 1.5963 11.719 2.93867 13.0614C4.28103 14.4038 6.10167 15.1579 8.00006 15.1579C9.89845 15.1579 11.7191 14.4038 13.0615 13.0614C14.4038 11.719 15.158 9.89839 15.158 8C15.158 6.10161 14.4038 4.28097 13.0615 2.9386C11.7191 1.59624 9.89845 0.842105 8.00006 0.842105Z" fill="#FF1A00"/>
</svg>
